# xmcd
# Copyright (C) 1995-1998 Ti Kan
#
# Track frame offsets:
#       150
#       21619
#       35831
#       53693
#       83693
#       100656
#       115756
#       136651
#       156731
#       182730
#       213645
#
# Disc length: 3217 seconds
#
# Revision: 0
# Processed by: cddbd v1.4PL0 Copyright (c) Steve Scherf et al.
# Submitted via: CD-Transfer v1.0
#
DISCID=970c8f0b
DTITLE=Carnation - Good Morning Evening
DYEAR=2003
DGENRE=
TTITLE0=Finally Here
TTITLE1=Colour In A Picture
TTITLE2=Behind The Door
TTITLE3=Time's A Passer-By
TTITLE4=Not Today But Tomorrow
TTITLE5=Home's Where The Heart Is
TTITLE6=Boy From Another Galaxy
TTITLE7=Miracles
TTITLE8=Cellophane Man
TTITLE9=Fade Out
TTITLE10=Better Than You
EXTD=
EXTT0=
EXTT1=
EXTT2=
EXTT3=
EXTT4=
EXTT5=
EXTT6=
EXTT7=
EXTT8=
EXTT9=
EXTT10=
PLAYORDER=
